<svg xmlns="http://www.w3.org/2000/svg" version="1.1" xmlns:xlink="http://www.w3.org/1999/xlink" xmlns:svgjs="http://svgjs.dev/svgjs" width="215" height="215"><svg width="215" height="215" viewBox="0 0 215 215" fill="none" xmlns="http://www.w3.org/2000/svg">
<g clip-path="url(#clip0_20_142)">
<path d="M215.003 107.501L107.502 0.000244141L0.000656169 107.501L107.502 215.002L215.003 107.501Z" fill="#2F52BD"></path>
<path d="M185.768 107.503L174.59 118.675L163.406 129.859L152.221 141.05L141.05 152.221L129.859 163.406L118.688 174.59L107.503 185.768L85.1411 163.406L73.9566 152.235L62.7788 141.05L51.5877 129.859L40.4098 118.688L29.2253 107.503L40.4098 96.3188L51.6009 85.141L62.7788 73.9565L73.9566 62.7786L85.1411 51.5875L96.3189 40.4097L107.503 29.2252L118.688 40.4097L129.859 51.5875L118.688 62.7786L107.503 51.5875L96.3189 62.7786L85.1411 73.9565L73.9566 85.141L62.7788 96.3122L51.5877 107.503L62.7788 118.688L73.9566 129.859L85.1411 141.05L96.3189 152.235L107.503 163.406L118.688 152.235L129.872 141.05L141.05 129.872L152.235 118.688L163.419 107.503L141.05 85.141L129.872 96.3188L107.503 118.688L107.609 96.2129L141.05 62.7786L152.235 73.9565L163.406 85.141L174.59 96.3188L185.768 107.503Z" fill="white"></path>
</g>
<defs>
<clipPath id="SvgjsClipPath1001">
<rect width="215" height="215" fill="white"></rect>
</clipPath>
</defs>
</svg><style>@media (prefers-color-scheme: light) { :root { filter: none; } }
@media (prefers-color-scheme: dark) { :root { filter: none; } }
</style></svg>