<svg width="333" height="333" viewBox="0 0 333 333" fill="none" xmlns="http://www.w3.org/2000/svg">
<g clip-path="url(#clip0_55_592)">
<path d="M333.004 166.502L166.503 0.000488281L0.0010522 166.502L166.503 333.004L333.004 166.502Z" fill="#2F52BD"/>
<path d="M287.725 166.505L270.412 183.808L253.089 201.13L235.766 218.464L218.464 235.766L201.13 253.089L183.828 270.412L166.505 287.725L131.87 253.089L114.547 235.787L97.2339 218.464L79.9007 201.13L62.5881 183.828L45.2651 166.505L62.5881 149.182L79.9212 131.87L97.2339 114.547L114.547 97.2339L131.87 79.9007L149.182 62.5881L166.505 45.2651L183.828 62.5881L201.13 79.9007L183.828 97.2339L166.505 79.9007L149.182 97.2339L131.87 114.547L114.547 131.87L97.2339 149.172L79.9007 166.505L97.2339 183.828L114.547 201.13L131.87 218.464L149.182 235.787L166.505 253.089L183.828 235.787L201.151 218.464L218.464 201.151L235.787 183.828L253.11 166.505L218.464 131.87L201.151 149.182L166.505 183.828L166.669 149.018L218.464 97.2339L235.787 114.547L253.089 131.87L270.412 149.182L287.725 166.505Z" fill="white"/>
</g>
<defs>
<clipPath id="clip0_55_592">
<rect width="333" height="333" fill="white"/>
</clipPath>
</defs>
</svg>
