<svg width="30" height="50" viewBox="0 0 30 50" fill="none" xmlns="http://www.w3.org/2000/svg">
<path d="M13 47.2783C13 48.3829 13.8954 49.2783 15 49.2783C16.1046 49.2783 17 48.3829 17 47.2783L13 47.2783ZM16.4142 2.16451C15.6332 1.38346 14.3668 1.38346 13.5858 2.16451L0.857866 14.8924C0.0768172 15.6735 0.0768172 16.9398 0.857866 17.7209C1.63891 18.5019 2.90524 18.5019 3.68629 17.7209L15 6.40715L26.3137 17.7209C27.0948 18.5019 28.3611 18.5019 29.1421 17.7209C29.9232 16.9398 29.9232 15.6735 29.1421 14.8924L16.4142 2.16451ZM17 47.2783L17 3.57872L13 3.57872L13 47.2783L17 47.2783Z" fill="#2F52BD"/>
</svg>
