<svg width="32" height="32" viewBox="0 0 32 32" fill="none" xmlns="http://www.w3.org/2000/svg">
<path d="M22.6666 24C23.3738 24 24.0521 24.2809 24.5522 24.781C25.0523 25.2811 25.3333 25.9594 25.3333 26.6666C25.3333 27.3739 25.0523 28.0521 24.5522 28.5522C24.0521 29.0523 23.3738 29.3333 22.6666 29.3333C21.9593 29.3333 21.2811 29.0523 20.781 28.5522C20.2809 28.0521 19.9999 27.3739 19.9999 26.6666C19.9999 25.1866 21.1866 24 22.6666 24ZM1.33325 2.66663H5.69325L6.94659 5.33329H26.6666C27.0202 5.33329 27.3593 5.47377 27.6094 5.72382C27.8594 5.97387 27.9999 6.313 27.9999 6.66663C27.9999 6.89329 27.9332 7.11996 27.8399 7.33329L23.0666 15.96C22.6132 16.7733 21.7333 17.3333 20.7333 17.3333H10.7999L9.59992 19.5066L9.55992 19.6666C9.55992 19.755 9.59504 19.8398 9.65755 19.9023C9.72006 19.9648 9.80485 20 9.89325 20H25.3333V22.6666H9.33325C8.62601 22.6666 7.94773 22.3857 7.44763 21.8856C6.94754 21.3855 6.66658 20.7072 6.66658 20C6.66658 19.5333 6.78658 19.0933 6.98658 18.72L8.79992 15.4533L3.99992 5.33329H1.33325V2.66663ZM9.33325 24C10.0405 24 10.7188 24.2809 11.2189 24.781C11.719 25.2811 11.9999 25.9594 11.9999 26.6666C11.9999 27.3739 11.719 28.0521 11.2189 28.5522C10.7188 29.0523 10.0405 29.3333 9.33325 29.3333C8.62601 29.3333 7.94773 29.0523 7.44763 28.5522C6.94754 28.0521 6.66658 27.3739 6.66658 26.6666C6.66658 25.1866 7.85325 24 9.33325 24ZM21.3333 14.6666L25.0399 7.99996H8.18658L11.3333 14.6666H21.3333Z" fill="white"/>
</svg>
