<svg width="48" height="48" viewBox="0 0 48 48" fill="none" xmlns="http://www.w3.org/2000/svg">
<path opacity="0.5" fill-rule="evenodd" clip-rule="evenodd" d="M20.64 0.761108C21.6893 0.26005 22.8373 0 24 0C25.1627 0 26.3108 0.26005 27.36 0.761108C28.2825 1.20364 29.1278 1.92481 30.3102 2.93397L30.4952 3.08851C31.6191 4.0485 32.6938 4.50274 34.1947 4.62216L34.4335 4.64089L34.4687 4.64371C36.0003 4.76632 37.0984 4.85422 38.0557 5.19347C39.1521 5.58082 40.148 6.20848 40.9704 7.0305C41.7928 7.85252 42.421 8.84808 42.8089 9.94427C43.1458 10.9016 43.2337 11.9995 43.3563 13.5309V13.531L43.3591 13.5665L43.3778 13.8053C43.4973 15.3062 43.9538 16.3809 44.9115 17.5048L45.066 17.6875L45.0964 17.7231L45.0964 17.7231C46.0897 18.8893 46.8031 19.7268 47.2389 20.64C47.7399 21.6893 48 22.8373 48 24C48 25.1627 47.7399 26.3107 47.2389 27.36C46.7964 28.2825 46.0752 29.1278 45.066 30.3102L44.9115 30.4952C43.9328 31.6425 43.4949 32.7219 43.3778 34.1947L43.3591 34.4335L43.3563 34.4687C43.2337 36.0003 43.1458 37.0984 42.8065 38.0557C42.4192 39.1521 41.7915 40.148 40.9695 40.9704C40.1475 41.7928 39.1519 42.421 38.0557 42.8089C37.0984 43.1458 36.0005 43.2337 34.469 43.3563L34.4335 43.3591L34.1947 43.3778C32.6938 43.4973 31.6191 43.9538 30.4952 44.9115L30.3102 45.066L30.2889 45.0842L30.2888 45.0843C29.1175 46.0839 28.2769 46.8014 27.36 47.2389C26.3108 47.7399 25.1627 48 24 48C22.8373 48 21.6893 47.7399 20.64 47.2389C19.7175 46.7964 18.8722 46.0752 17.6898 45.066L17.5048 44.9115C16.484 43.9913 15.1778 43.4498 13.8053 43.3778L13.5665 43.3591L13.5313 43.3563H13.5313C11.9997 43.2337 10.9016 43.1458 9.94427 42.8065C8.84789 42.4192 7.85202 41.7915 7.02959 40.9695C6.20717 40.1475 5.57902 39.1519 5.19113 38.0557C4.85422 37.0984 4.76633 36.0005 4.64374 34.469L4.64089 34.4335L4.62216 34.1947C4.5502 32.8222 4.00874 31.516 3.08851 30.4952L2.93397 30.3102L2.91581 30.2889L2.9158 30.2889C1.91612 29.1176 1.19865 28.277 0.761108 27.36C0.260051 26.3107 0 25.1627 0 24C0 22.8373 0.260051 21.6893 0.761108 20.64C1.20364 19.7175 1.92481 18.8722 2.93397 17.6898L3.08851 17.5048C4.00874 16.4839 4.5502 15.1778 4.62216 13.8053L4.64089 13.5665L4.64371 13.5313C4.76632 11.9996 4.85422 10.9016 5.19347 9.94427C5.58082 8.84789 6.20848 7.85202 7.0305 7.02959C7.85252 6.20717 8.84808 5.57901 9.94427 5.19113C10.9016 4.85422 11.9995 4.76633 13.531 4.64373L13.531 4.64373L13.5665 4.64089L13.8053 4.62216C15.1778 4.55019 16.484 4.00874 17.5048 3.08851L17.6875 2.93397L17.723 2.90367C18.8892 1.91031 19.7267 1.19688 20.64 0.761108ZM24.5981 35.3542L24.587 35.3562L24.5154 35.3915L24.4952 35.3956L24.4811 35.3915L24.4095 35.3562C24.3987 35.3529 24.3906 35.3546 24.3853 35.3613L24.3812 35.3714L24.3641 35.803L24.3691 35.8232L24.3792 35.8363L24.4841 35.9109L24.4992 35.915L24.5113 35.9109L24.6162 35.8363L24.6283 35.8202L24.6324 35.803L24.6152 35.3724C24.6125 35.3616 24.6068 35.3556 24.5981 35.3542ZM24.8653 35.2403L24.8522 35.2423L24.6656 35.3361L24.6556 35.3462L24.6525 35.3572L24.6707 35.7909L24.6757 35.803L24.6838 35.8101L24.8865 35.9039C24.8993 35.9072 24.909 35.9046 24.9158 35.8958L24.9198 35.8817L24.8855 35.2624C24.8821 35.2503 24.8754 35.2429 24.8653 35.2403ZM24.1442 35.2423C24.1419 35.2409 24.1394 35.24 24.1368 35.2396C24.1344 35.2392 24.1318 35.2393 24.1294 35.2398C24.1243 35.241 24.1199 35.244 24.117 35.2483L24.1109 35.2624L24.0766 35.8817C24.0773 35.8938 24.083 35.9019 24.0938 35.9059L24.1089 35.9039L24.3116 35.8101L24.3217 35.802L24.3258 35.7909L24.3429 35.3572L24.3399 35.3451L24.3298 35.3351L24.1442 35.2423ZM15.5139 14.5053C15.1356 14.8836 14.9231 15.3967 14.9231 15.9316V32.0684C14.9231 32.6033 15.1356 33.1164 15.5139 33.4947C15.8921 33.873 16.4052 34.0855 16.9402 34.0855H18.9573C19.3113 34.0855 19.6592 33.9922 19.9658 33.8152C20.2724 33.9922 20.6203 34.0855 20.9744 34.0855H22.9915C23.5264 34.0855 24.0395 33.873 24.4178 33.4947C24.796 33.1164 25.0085 32.6033 25.0085 32.0684V20.6345L28.2077 32.5767C28.2762 32.8326 28.3946 33.0725 28.5559 33.2826C28.7171 33.4928 28.9183 33.6691 29.1477 33.8016C29.3772 33.934 29.6305 34.0199 29.8931 34.0544C30.1558 34.089 30.4227 34.0714 30.6786 34.0028L32.6271 33.4813C32.883 33.4128 33.1229 33.2945 33.3331 33.1332C33.5432 32.9719 33.7196 32.7707 33.852 32.5413C33.9844 32.3118 34.0703 32.0585 34.1049 31.7959C34.1394 31.5332 34.1218 31.2663 34.0532 31.0104L29.8778 15.4233C29.8092 15.1674 29.6909 14.9275 29.5296 14.7174C29.3683 14.5072 29.1672 14.3309 28.9377 14.1984C28.7083 14.066 28.455 13.9801 28.1923 13.9456C27.9297 13.911 27.6628 13.9286 27.4069 13.9972L25.4584 14.5187C25.18 14.5933 24.9319 14.7224 24.7201 14.8918C24.3671 14.3058 23.7247 13.9145 22.9915 13.9145H20.9744C20.6203 13.9145 20.2724 14.0078 19.9658 14.1848C19.6693 14.0124 19.3244 13.9145 18.9573 13.9145H16.9402C16.4052 13.9145 15.8921 14.127 15.5139 14.5053ZM18.9573 15.9316H16.9402V32.0684H18.9573V15.9316ZM20.9744 32.0684H22.9915V15.9316H20.9744V32.0684ZM27.9283 15.9457L25.9808 16.4672L30.1572 32.0543L32.1057 31.5328L27.9283 15.9457Z" fill="#3A66E8"/>
</svg>
