<svg width="64" height="64" viewBox="0 0 64 64" fill="none" xmlns="http://www.w3.org/2000/svg">
<rect x="1" y="1" width="62" height="62" fill="white" stroke="#2F52BD" stroke-width="2"/>
<path d="M47.131 18.1177C44.3629 16.8273 41.3658 15.8907 38.2439 15.3496C38.189 15.3504 38.1366 15.3728 38.0982 15.412C37.7236 16.0989 37.2865 16.9938 36.9951 17.6807C33.6837 17.1815 30.3162 17.1815 27.0049 17.6807C26.7135 16.973 26.2764 16.0989 25.881 15.412C25.8601 15.3704 25.7977 15.3496 25.7353 15.3496C22.6133 15.8907 19.6371 16.8273 16.8481 18.1177C16.8273 18.1177 16.8065 18.1386 16.7857 18.1594C11.1245 26.6303 9.56356 34.8722 10.3336 43.0309C10.3336 43.0725 10.3545 43.1142 10.3961 43.135C14.1424 45.8823 17.7431 47.5473 21.3021 48.6504C21.3645 48.6712 21.427 48.6504 21.4478 48.6088C22.2803 47.4641 23.0296 46.2569 23.6748 44.9873C23.7164 44.9041 23.6748 44.8208 23.5915 44.8C22.4052 44.3421 21.2813 43.801 20.1782 43.1766C20.0949 43.135 20.0949 43.0101 20.1574 42.9477C20.3863 42.7812 20.6153 42.5938 20.8442 42.4273C20.8858 42.3857 20.9483 42.3857 20.9899 42.4065C28.1496 45.6742 35.8712 45.6742 42.9476 42.4065C42.9893 42.3857 43.0517 42.3857 43.0933 42.4273C43.3223 42.6147 43.5512 42.7812 43.7801 42.9685C43.8634 43.0309 43.8634 43.1558 43.7593 43.1974C42.6771 43.8426 41.5323 44.3629 40.346 44.8208C40.2627 44.8416 40.2419 44.9457 40.2627 45.0081C40.9288 46.2777 41.678 47.4849 42.4897 48.6296C42.5522 48.6504 42.6146 48.6712 42.6771 48.6504C46.2569 47.5473 49.8575 45.8823 53.6039 43.135C53.6455 43.1142 53.6663 43.0725 53.6663 43.0309C54.5821 33.6026 52.147 25.4231 47.2143 18.1594C47.1935 18.1386 47.1727 18.1177 47.131 18.1177ZM24.7571 38.0566C22.6133 38.0566 20.8234 36.0794 20.8234 33.6442C20.8234 31.2091 22.5717 29.2319 24.7571 29.2319C26.9632 29.2319 28.7115 31.2299 28.6907 33.6442C28.6907 36.0794 26.9424 38.0566 24.7571 38.0566ZM39.2637 38.0566C37.12 38.0566 35.3301 36.0794 35.3301 33.6442C35.3301 31.2091 37.0784 29.2319 39.2637 29.2319C41.4699 29.2319 43.2182 31.2299 43.1974 33.6442C43.1974 36.0794 41.4699 38.0566 39.2637 38.0566Z" fill="#2F52BD"/>
</svg>
