<svg width="82" height="82" viewBox="0 0 82 82" fill="none" xmlns="http://www.w3.org/2000/svg">
<rect x="1" y="1" width="80" height="80" fill="#1C232F" stroke="#3A66E8" stroke-width="2"/>
<path d="M60.3867 23.2132C56.84 21.5598 53 20.3598 49 19.6665C48.9296 19.6675 48.8626 19.6963 48.8133 19.7465C48.3333 20.6265 47.7733 21.7732 47.4 22.6532C43.1573 22.0136 38.8427 22.0136 34.6 22.6532C34.2267 21.7465 33.6667 20.6265 33.16 19.7465C33.1333 19.6932 33.0533 19.6665 32.9733 19.6665C28.9733 20.3598 25.16 21.5598 21.5867 23.2132C21.56 23.2132 21.5333 23.2398 21.5067 23.2665C14.2533 34.1198 12.2533 44.6798 13.24 55.1332C13.24 55.1865 13.2667 55.2398 13.32 55.2665C18.12 58.7865 22.7333 60.9198 27.2933 62.3332C27.3733 62.3598 27.4533 62.3332 27.48 62.2798C28.5467 60.8132 29.5067 59.2665 30.3333 57.6398C30.3867 57.5332 30.3333 57.4265 30.2267 57.3998C28.7067 56.8132 27.2667 56.1198 25.8533 55.3198C25.7467 55.2665 25.7467 55.1065 25.8267 55.0265C26.12 54.8132 26.4133 54.5732 26.7067 54.3598C26.76 54.3065 26.84 54.3065 26.8933 54.3332C36.0667 58.5198 45.96 58.5198 55.0267 54.3332C55.08 54.3065 55.16 54.3065 55.2133 54.3598C55.5067 54.5998 55.8 54.8132 56.0933 55.0532C56.2 55.1332 56.2 55.2932 56.0666 55.3465C54.68 56.1732 53.2133 56.8398 51.6933 57.4265C51.5867 57.4532 51.56 57.5865 51.5867 57.6665C52.44 59.2932 53.4 60.8398 54.44 62.3065C54.52 62.3332 54.6 62.3598 54.68 62.3332C59.2666 60.9198 63.88 58.7865 68.68 55.2665C68.7333 55.2398 68.76 55.1865 68.76 55.1332C69.9333 43.0532 66.8133 32.5732 60.4933 23.2665C60.4666 23.2398 60.44 23.2132 60.3867 23.2132ZM31.72 48.7598C28.9733 48.7598 26.68 46.2265 26.68 43.1065C26.68 39.9865 28.92 37.4532 31.72 37.4532C34.5467 37.4532 36.7867 40.0132 36.76 43.1065C36.76 46.2265 34.52 48.7598 31.72 48.7598ZM50.3067 48.7598C47.56 48.7598 45.2667 46.2265 45.2667 43.1065C45.2667 39.9865 47.5067 37.4532 50.3067 37.4532C53.1333 37.4532 55.3733 40.0132 55.3466 43.1065C55.3466 46.2265 53.1333 48.7598 50.3067 48.7598Z" fill="#3A66E8"/>
</svg>
