<svg width="48" height="48" viewBox="0 0 48 48" fill="none" xmlns="http://www.w3.org/2000/svg">
<path opacity="0.5" fill-rule="evenodd" clip-rule="evenodd" d="M24 0C22.8373 0 21.6893 0.26005 20.64 0.761108C19.7267 1.19688 18.8892 1.91031 17.723 2.90367L17.6875 2.93397L17.5048 3.08851C16.484 4.00874 15.1778 4.55019 13.8053 4.62216L13.5665 4.64089L13.531 4.64373C11.9995 4.76633 10.9016 4.85422 9.94427 5.19113C8.84808 5.57901 7.85252 6.20717 7.0305 7.02959C6.20848 7.85202 5.58082 8.84789 5.19347 9.94427C4.85422 10.9016 4.76632 11.9996 4.64371 13.5313L4.64089 13.5665L4.62216 13.8053C4.5502 15.1778 4.00874 16.4839 3.08851 17.5048L2.93397 17.6898C1.92481 18.8722 1.20364 19.7175 0.761108 20.64C0.260051 21.6893 0 22.8373 0 24C0 25.1627 0.260051 26.3107 0.761108 27.36C1.19866 28.277 1.91612 29.1176 2.91581 30.2889L2.93397 30.3102L3.08851 30.4952C4.00874 31.516 4.5502 32.8222 4.62216 34.1947L4.64089 34.4335L4.64374 34.469C4.76633 36.0005 4.85422 37.0984 5.19113 38.0557C5.57902 39.1519 6.20717 40.1475 7.02959 40.9695C7.85202 41.7915 8.84789 42.4192 9.94427 42.8065C10.9016 43.1458 11.9997 43.2337 13.5313 43.3563L13.5665 43.3591L13.8053 43.3778C15.1778 43.4498 16.484 43.9913 17.5048 44.9115L17.6898 45.066C18.8722 46.0752 19.7175 46.7964 20.64 47.2389C21.6893 47.7399 22.8373 48 24 48C25.1627 48 26.3108 47.7399 27.36 47.2389C28.277 46.8014 29.1176 46.0839 30.2889 45.0842L30.3102 45.066L30.4952 44.9115C31.6191 43.9538 32.6938 43.4973 34.1947 43.3778L34.4335 43.3591L34.469 43.3563C36.0005 43.2337 37.0984 43.1458 38.0557 42.8089C39.1519 42.421 40.1475 41.7928 40.9695 40.9704C41.7915 40.148 42.4192 39.1521 42.8065 38.0557C43.1458 37.0984 43.2337 36.0003 43.3563 34.4687L43.3591 34.4335L43.3778 34.1947C43.4949 32.7219 43.9328 31.6425 44.9115 30.4952L45.066 30.3102C46.0752 29.1278 46.7964 28.2825 47.2389 27.36C47.7399 26.3107 48 25.1627 48 24C48 22.8373 47.7399 21.6893 47.2389 20.64C46.8031 19.7268 46.0897 18.8892 45.0964 17.7231L45.066 17.6875L44.9115 17.5048C43.9538 16.3809 43.4973 15.3062 43.3778 13.8053L43.3591 13.5665L43.3563 13.531C43.2337 11.9995 43.1458 10.9016 42.8089 9.94427C42.421 8.84808 41.7928 7.85252 40.9704 7.0305C40.148 6.20848 39.1521 5.58082 38.0557 5.19347C37.0984 4.85422 36.0003 4.76632 34.4687 4.64371L34.4335 4.64089L34.1947 4.62216C32.6938 4.50274 31.6191 4.0485 30.4952 3.08851L30.3102 2.93397C29.1278 1.92481 28.2825 1.20364 27.36 0.761108C26.3108 0.26005 25.1627 0 24 0ZM15.1447 22.8931V32.8553C15.1454 33.4649 15.3623 33.9862 15.7955 34.4194C16.2287 34.8526 16.7497 35.0692 17.3585 35.0692H30.6415C31.2511 35.0699 31.7724 34.8533 32.2056 34.4194C32.6388 33.9855 32.8553 33.4641 32.8553 32.8553V22.8931C33.4649 22.8938 33.9862 22.6772 34.4194 22.2433C34.8526 21.8094 35.0692 21.288 35.0692 20.6792V18.4654C35.0699 17.8573 34.8533 17.3364 34.4194 16.9024C33.9855 16.4685 33.4642 16.2516 32.8553 16.2516H29.3132C29.387 16.0678 29.4424 15.8881 29.4792 15.7125C29.5161 15.5369 29.5346 15.3476 29.5346 15.1447C29.5346 14.2222 29.2117 13.4382 28.566 12.7925C27.9203 12.1468 27.1363 11.8239 26.2138 11.8239C25.7895 11.8239 25.3929 11.8977 25.0239 12.0453C24.6549 12.1929 24.3136 12.4143 24 12.7094C23.6864 12.4334 23.3451 12.2169 22.9761 12.0597C22.6071 11.9025 22.2105 11.8239 21.7862 11.8239C20.8637 11.8239 20.0797 12.1468 19.434 12.7925C18.7883 13.4382 18.4654 14.2222 18.4654 15.1447C18.4661 15.3476 18.4802 15.5413 18.5075 15.7258C18.5348 15.9103 18.5945 16.0855 18.6868 16.2516H15.1447C14.5366 16.2523 14.0156 16.4693 13.5817 16.9024C13.1478 17.3356 12.9308 17.8566 12.9308 18.4654V20.6792C12.9316 21.2888 13.1485 21.8101 13.5817 22.2433C14.0149 22.6765 14.5358 22.8931 15.1447 22.8931ZM25.4257 14.3565C25.6375 14.144 25.9002 14.0377 26.2138 14.0377C26.5289 14.0392 26.7916 14.1455 27.002 14.3565C27.2123 14.5676 27.3185 14.8303 27.3208 15.1447C27.323 15.459 27.2171 15.7217 27.0031 15.9328C26.7891 16.1438 26.526 16.2501 26.2138 16.2516C25.9017 16.253 25.639 16.1472 25.4257 15.9339C25.2124 15.7206 25.1062 15.4575 25.1069 15.1447C25.1077 14.8318 25.2139 14.5691 25.4257 14.3565ZM20.998 15.9339C20.7855 15.7214 20.6792 15.4583 20.6792 15.1447C20.6807 14.8325 20.787 14.5698 20.998 14.3565C21.2091 14.1433 21.4718 14.037 21.7862 14.0377C22.1005 14.0385 22.3632 14.1447 22.5743 14.3565C22.7853 14.5683 22.8916 14.831 22.8931 15.1447C22.8946 15.4583 22.7887 15.721 22.5754 15.9328C22.3621 16.1446 22.0991 16.2508 21.7862 16.2516C21.4733 16.2523 21.2106 16.1464 20.998 15.9339ZM15.1447 20.6792V18.4654H22.8931V20.6792H15.1447ZM22.8931 22.8931V32.8553H17.3585V22.8931H22.8931ZM30.6415 32.8553H25.1069V22.8931H30.6415V32.8553ZM32.8553 18.4654V20.6792H25.1069V18.4654H32.8553Z" fill="#152657"/>
</svg>
