<svg width="177" height="61" viewBox="0 0 177 61" fill="none" xmlns="http://www.w3.org/2000/svg">
<path d="M84.3993 32.32C82.3513 32.32 80.6233 31.8827 79.2153 31.008C77.8073 30.112 76.7299 28.8427 75.9833 27.2C75.2579 25.536 74.8953 23.5627 74.8953 21.28C74.8953 19.04 75.3113 17.0987 76.1433 15.456C76.9753 13.792 78.1699 12.512 79.7273 11.616C81.2846 10.6987 83.1513 10.24 85.3273 10.24C87.4606 10.24 89.2526 10.5813 90.7033 11.264C92.1539 11.9253 93.2526 12.864 93.9993 14.08C94.7459 15.296 95.1193 16.7573 95.1193 18.464V18.624H90.0313V18.496C90.0313 17.1307 89.6686 16.192 88.9433 15.68C88.2179 15.1467 86.9806 14.88 85.2313 14.88C84.0153 14.88 83.0233 15.0613 82.2553 15.424C81.4873 15.7867 80.9219 16.4373 80.5593 17.376C80.1966 18.2933 80.0153 19.5947 80.0153 21.28C80.0153 22.9867 80.2073 24.3093 80.5913 25.248C80.9753 26.1867 81.5833 26.8373 82.4153 27.2C83.2473 27.5627 84.3353 27.744 85.6793 27.744C86.8099 27.744 87.7273 27.6587 88.4313 27.488C89.1566 27.3173 89.6899 26.9973 90.0313 26.528C90.3939 26.0587 90.5753 25.3867 90.5753 24.512V23.072H95.1833V23.552L91.0873 28.736H90.5433C90.3299 29.2907 89.9779 29.8453 89.4873 30.4C89.0179 30.9547 88.3673 31.4133 87.5353 31.776C86.7033 32.1387 85.6579 32.32 84.3993 32.32ZM95.1833 32H90.7353V26.208L90.5753 25.824V21.184H95.1833V32ZM95.1833 24.608H84.7193V20.608H95.1833V24.608ZM100.649 32H95.657L103.561 10.56H110.537L118.441 32H113.225L108.713 19.616L107.145 14.784H106.825L105.193 19.616L100.649 32ZM114.249 27.232H100.041V22.944H114.249V27.232ZM124.241 32H119.441V10.56H126.193L129.937 20.576L131.665 26.08H131.985L133.681 20.576L137.265 10.56H144.017V32H139.217V21.856L139.473 17.728H139.121L137.873 21.92L134.641 30.528H128.817L125.585 21.92L124.305 17.728H123.985L124.241 21.856V32ZM150.024 32H145.032L152.936 10.56H159.912L167.816 32H162.6L158.088 19.616L156.52 14.784H156.2L154.568 19.616L150.024 32ZM163.624 27.232H149.416V22.944H163.624V27.232Z" fill="white"/>
<path d="M78.6753 53.14C77.7979 53.14 77.0513 52.944 76.4353 52.552C75.8193 52.16 75.3433 51.6 75.0073 50.872C74.6713 50.144 74.5033 49.29 74.5033 48.31C74.5033 47.33 74.6806 46.4807 75.0353 45.762C75.3899 45.034 75.8893 44.474 76.5333 44.082C77.1866 43.6807 77.9706 43.48 78.8853 43.48C79.6413 43.48 80.3039 43.62 80.8733 43.9C81.4426 44.1707 81.8906 44.5627 82.2173 45.076C82.5439 45.58 82.7073 46.182 82.7073 46.882V47.008H81.6433V46.882C81.6433 46.0793 81.4146 45.4727 80.9573 45.062C80.4999 44.6513 79.7766 44.446 78.7873 44.446C78.0499 44.446 77.4386 44.5907 76.9533 44.88C76.4773 45.16 76.1273 45.5847 75.9033 46.154C75.6793 46.7233 75.5673 47.442 75.5673 48.31C75.5673 49.1687 75.6793 49.8827 75.9033 50.452C76.1366 51.0213 76.4959 51.4507 76.9813 51.74C77.4759 52.02 78.1013 52.16 78.8573 52.16C79.5106 52.16 80.0473 52.076 80.4673 51.908C80.8966 51.7307 81.2186 51.46 81.4333 51.096C81.6479 50.7227 81.7553 50.256 81.7553 49.696V49.416H82.7213V49.64L81.9373 51.446H81.7693C81.6199 51.8007 81.3959 52.104 81.0973 52.356C80.7986 52.608 80.4439 52.804 80.0333 52.944C79.6226 53.0747 79.1699 53.14 78.6753 53.14ZM82.7213 53H81.8253V50.746L81.7553 50.62V48.59H82.7213V53ZM82.7213 49.234H78.5073V48.352H82.7213V49.234ZM84.1733 53H83.1093L86.9173 43.62H88.3313L92.1253 53H91.0473L88.1633 46L87.6313 44.572H87.5613L87.0153 46L84.1733 53ZM90.4313 50.256H84.8033V49.332H90.4313V50.256ZM93.9088 53H92.9008V43.62H94.3148L96.9608 49.444L97.8008 51.474H97.8848L98.7388 49.444L101.357 43.62H102.771V53H101.763V46.504L101.805 45.132H101.735L101.147 46.504L98.4308 52.44H97.2268L94.5108 46.504L93.9508 45.132H93.8528L93.9088 46.504V53ZM105.557 53H104.549V43.62H105.557V53ZM110.863 53H104.885V52.076H110.863V53ZM110.653 48.744H104.885V47.82H110.653V48.744ZM110.863 44.53H104.885V43.62H110.863V44.53ZM113.159 53H112.151V43.62H115.973C116.617 43.62 117.181 43.7273 117.667 43.942C118.161 44.1473 118.544 44.4553 118.815 44.866C119.095 45.2767 119.235 45.7713 119.235 46.35C119.235 46.8727 119.118 47.33 118.885 47.722C118.651 48.1047 118.325 48.4033 117.905 48.618C117.494 48.8233 117.004 48.9353 116.435 48.954V49.024C116.733 49.1173 116.985 49.262 117.191 49.458C117.396 49.654 117.583 49.8967 117.751 50.186L119.347 53H118.185L116.673 50.368C116.523 50.0973 116.355 49.8733 116.169 49.696C115.991 49.5187 115.772 49.388 115.511 49.304C115.249 49.22 114.918 49.178 114.517 49.178H113.159V53ZM113.159 44.53V48.324H116.127C116.845 48.324 117.373 48.1747 117.709 47.876C118.054 47.568 118.227 47.0827 118.227 46.42C118.227 45.776 118.054 45.3 117.709 44.992C117.373 44.684 116.845 44.53 116.127 44.53H113.159ZM123.937 53.14C123.078 53.14 122.373 53.0047 121.823 52.734C121.272 52.454 120.861 52.09 120.591 51.642C120.329 51.1847 120.199 50.69 120.199 50.158V49.948H121.193V50.088C121.193 50.5267 121.277 50.9047 121.445 51.222C121.622 51.53 121.911 51.7727 122.313 51.95C122.714 52.118 123.265 52.202 123.965 52.202C124.749 52.202 125.323 52.0713 125.687 51.81C126.06 51.5487 126.247 51.152 126.247 50.62C126.247 50.2653 126.186 49.9807 126.065 49.766C125.953 49.542 125.757 49.36 125.477 49.22C125.206 49.08 124.833 48.9587 124.357 48.856L122.733 48.506C122.238 48.4033 121.804 48.254 121.431 48.058C121.067 47.8527 120.777 47.5867 120.563 47.26C120.357 46.924 120.255 46.5087 120.255 46.014C120.255 45.5567 120.381 45.1367 120.633 44.754C120.885 44.362 121.258 44.054 121.753 43.83C122.257 43.5967 122.873 43.48 123.601 43.48C124.413 43.48 125.075 43.6247 125.589 43.914C126.111 44.194 126.494 44.5673 126.737 45.034C126.979 45.4913 127.101 45.9767 127.101 46.49V46.672H126.107V46.518C126.107 46.0793 126.023 45.706 125.855 45.398C125.696 45.0807 125.43 44.838 125.057 44.67C124.693 44.4927 124.203 44.404 123.587 44.404C122.812 44.404 122.233 44.5347 121.851 44.796C121.468 45.048 121.277 45.4307 121.277 45.944C121.277 46.2987 121.337 46.5833 121.459 46.798C121.58 47.0033 121.781 47.1713 122.061 47.302C122.341 47.4233 122.705 47.5353 123.153 47.638L124.777 48.016C125.299 48.128 125.743 48.2913 126.107 48.506C126.471 48.7113 126.751 48.982 126.947 49.318C127.152 49.654 127.255 50.0693 127.255 50.564C127.255 51.0307 127.133 51.4647 126.891 51.866C126.648 52.258 126.279 52.5707 125.785 52.804C125.29 53.028 124.674 53.14 123.937 53.14ZM132.245 53H131.237V43.62H132.245V53ZM137.551 53H131.573V52.076H137.551V53ZM137.341 48.744H131.573V47.82H137.341V48.744ZM137.551 44.53H131.573V43.62H137.551V44.53ZM139.846 53H138.838V43.62H140.252L142.898 49.444L143.738 51.474H143.822L144.676 49.444L147.294 43.62H148.708V53H147.7V46.504L147.742 45.132H147.672L147.084 46.504L144.368 52.44H143.164L140.448 46.504L139.888 45.132H139.79L139.846 46.504V53ZM154.155 49.78H150.921V48.884H154.309C155.074 48.884 155.639 48.716 156.003 48.38C156.367 48.0347 156.549 47.4747 156.549 46.7C156.549 45.9347 156.367 45.384 156.003 45.048C155.639 44.7027 155.074 44.53 154.309 44.53H150.921V43.62H154.155C154.808 43.62 155.391 43.7413 155.905 43.984C156.418 44.2267 156.819 44.5767 157.109 45.034C157.407 45.4913 157.557 46.0467 157.557 46.7C157.557 47.3533 157.407 47.9133 157.109 48.38C156.819 48.8373 156.418 49.1873 155.905 49.43C155.391 49.6633 154.808 49.78 154.155 49.78ZM151.495 53H150.487V43.62H151.495V53ZM159.684 53H158.676V43.62H159.684V53ZM162.473 53H161.465V43.62H165.287C165.931 43.62 166.496 43.7273 166.981 43.942C167.476 44.1473 167.859 44.4553 168.129 44.866C168.409 45.2767 168.549 45.7713 168.549 46.35C168.549 46.8727 168.433 47.33 168.199 47.722C167.966 48.1047 167.639 48.4033 167.219 48.618C166.809 48.8233 166.319 48.9353 165.749 48.954V49.024C166.048 49.1173 166.3 49.262 166.505 49.458C166.711 49.654 166.897 49.8967 167.065 50.186L168.661 53H167.499L165.987 50.368C165.838 50.0973 165.67 49.8733 165.483 49.696C165.306 49.5187 165.087 49.388 164.825 49.304C164.564 49.22 164.233 49.178 163.831 49.178H162.473V53ZM162.473 44.53V48.324H165.441C166.16 48.324 166.687 48.1747 167.023 47.876C167.369 47.568 167.541 47.0827 167.541 46.42C167.541 45.776 167.369 45.3 167.023 44.992C166.687 44.684 166.16 44.53 165.441 44.53H162.473ZM170.745 53H169.737V43.62H170.745V53ZM176.051 53H170.073V52.076H176.051V53ZM175.841 48.744H170.073V47.82H175.841V48.744ZM176.051 44.53H170.073V43.62H176.051V44.53Z" fill="white"/>
<g clip-path="url(#clip0_55_667)">
<path d="M61.0001 30.5003L30.4998 0L-0.000540864 30.5003L30.4998 61.0006L61.0001 30.5003Z" fill="#2F52BD"/>
<path d="M52.7055 30.5009L49.5341 33.6704L46.3609 36.8437L43.1876 40.0188L40.0181 43.1883L36.8429 46.3616L33.6734 49.5349L30.5001 52.7063L24.1555 46.3616L20.9822 43.1921L17.8108 40.0188L14.6357 36.8437L11.4643 33.6741L8.29102 30.5009L11.4643 27.3276L14.6394 24.1562L17.8108 20.9829L20.9822 17.8116L24.1555 14.6364L27.3269 11.465L30.5001 8.29175L33.6734 11.465L36.8429 14.6364L33.6734 17.8116L30.5001 14.6364L27.3269 17.8116L24.1555 20.9829L20.9822 24.1562L17.8108 27.3257L14.6357 30.5009L17.8108 33.6741L20.9822 36.8437L24.1555 40.0188L27.3269 43.1921L30.5001 46.3616L33.6734 43.1921L36.8467 40.0188L40.0181 36.8474L43.1913 33.6741L46.3646 30.5009L40.0181 24.1562L36.8467 27.3276L30.5001 33.6741L30.5302 27.2976L40.0181 17.8116L43.1913 20.9829L46.3609 24.1562L49.5341 27.3276L52.7055 30.5009Z" fill="white"/>
</g>
<defs>
<clipPath id="clip0_55_667">
<rect width="61" height="61" fill="white" transform="translate(-0.000732422)"/>
</clipPath>
</defs>
</svg>
