<svg width="100" height="100" viewBox="0 0 100 100" fill="none" xmlns="http://www.w3.org/2000/svg">
<g clip-path="url(#clip0_34_74)">
<path d="M100.001 50.0006L50.0007 0.00012207L0.000242364 50.0006L50.0007 100.001L100.001 50.0006Z" fill="#2F52BD"/>
<path d="M86.4037 50.0015L81.2047 55.1975L76.0026 60.3995L70.8005 65.6047L65.6046 70.8006L60.3994 76.0027L55.2035 81.2048L50.0014 86.4038L39.6003 76.0027L34.3983 70.8068L29.1993 65.6047L23.9941 60.3995L18.7951 55.2036L13.593 50.0015L18.7951 44.7995L24.0003 39.6005L29.1993 34.3984L34.3983 29.1994L39.6003 23.9942L44.7993 18.7952L50.0014 13.5931L55.2035 18.7952L60.3994 23.9942L55.2035 29.1994L50.0014 23.9942L44.7993 29.1994L39.6003 34.3984L34.3983 39.6005L29.1993 44.7964L23.9941 50.0015L29.1993 55.2036L34.3983 60.3995L39.6003 65.6047L44.7993 70.8068L50.0014 76.0027L55.2035 70.8068L60.4056 65.6047L65.6046 60.4057L70.8067 55.2036L76.0087 50.0015L65.6046 39.6005L60.4056 44.7995L50.0014 55.2036L50.0507 44.7502L65.6046 29.1994L70.8067 34.3984L76.0026 39.6005L81.2047 44.7995L86.4037 50.0015Z" fill="white"/>
</g>
<defs>
<clipPath id="clip0_34_74">
<rect width="100" height="100" fill="white"/>
</clipPath>
</defs>
</svg>
