<svg width="48" height="48" viewBox="0 0 48 48" fill="none" xmlns="http://www.w3.org/2000/svg">
<path opacity="0.5" fill-rule="evenodd" clip-rule="evenodd" d="M24 0C22.8373 0 21.6893 0.26005 20.64 0.761108C19.7267 1.19688 18.8892 1.91031 17.723 2.90367L17.6875 2.93397L17.5048 3.08851C16.484 4.00874 15.1778 4.55019 13.8053 4.62216L13.5665 4.64089L13.531 4.64373C11.9995 4.76633 10.9016 4.85422 9.94427 5.19113C8.84808 5.57901 7.85252 6.20717 7.0305 7.02959C6.20848 7.85202 5.58082 8.84789 5.19347 9.94427C4.85422 10.9016 4.76632 11.9996 4.64371 13.5313L4.64089 13.5665L4.62216 13.8053C4.5502 15.1778 4.00874 16.4839 3.08851 17.5048L2.93397 17.6898C1.92481 18.8722 1.20364 19.7175 0.761108 20.64C0.260051 21.6893 0 22.8373 0 24C0 25.1627 0.260051 26.3107 0.761108 27.36C1.19866 28.277 1.91612 29.1176 2.91581 30.2889L2.93397 30.3102L3.08851 30.4952C4.00874 31.516 4.5502 32.8222 4.62216 34.1947L4.64089 34.4335L4.64374 34.469C4.76633 36.0005 4.85422 37.0984 5.19113 38.0557C5.57902 39.1519 6.20717 40.1475 7.02959 40.9695C7.85202 41.7915 8.84789 42.4192 9.94427 42.8065C10.9016 43.1458 11.9997 43.2337 13.5313 43.3563L13.5665 43.3591L13.8053 43.3778C15.1778 43.4498 16.484 43.9913 17.5048 44.9115L17.6898 45.066C18.8722 46.0752 19.7175 46.7964 20.64 47.2389C21.6893 47.7399 22.8373 48 24 48C25.1627 48 26.3108 47.7399 27.36 47.2389C28.277 46.8014 29.1176 46.0839 30.2889 45.0842L30.3102 45.066L30.4952 44.9115C31.6191 43.9538 32.6938 43.4973 34.1947 43.3778L34.4335 43.3591L34.469 43.3563C36.0005 43.2337 37.0984 43.1458 38.0557 42.8089C39.1519 42.421 40.1475 41.7928 40.9695 40.9704C41.7915 40.148 42.4192 39.1521 42.8065 38.0557C43.1458 37.0984 43.2337 36.0003 43.3563 34.4687L43.3591 34.4335L43.3778 34.1947C43.4949 32.7219 43.9328 31.6425 44.9115 30.4952L45.066 30.3102C46.0752 29.1278 46.7964 28.2825 47.2389 27.36C47.7399 26.3107 48 25.1627 48 24C48 22.8373 47.7399 21.6893 47.2389 20.64C46.8031 19.7268 46.0897 18.8892 45.0964 17.7231L45.066 17.6875L44.9115 17.5048C43.9538 16.3809 43.4973 15.3062 43.3778 13.8053L43.3591 13.5665L43.3563 13.531C43.2337 11.9995 43.1458 10.9016 42.8089 9.94427C42.421 8.84808 41.7928 7.85252 40.9704 7.0305C40.148 6.20848 39.1521 5.58082 38.0557 5.19347C37.0984 4.85422 36.0003 4.76632 34.4687 4.64371L34.4335 4.64089L34.1947 4.62216C32.6938 4.50274 31.6191 4.0485 30.4952 3.08851L30.3102 2.93397C29.1278 1.92481 28.2825 1.20364 27.36 0.761108C26.3108 0.26005 25.1627 0 24 0ZM26.8806 20.0353L24 11.1698L21.1194 20.0353H11.7978L19.3392 25.5144L16.4586 34.3798L24 28.9007L31.5414 34.3798L28.6608 25.5144L36.2022 20.0353H26.8806Z" fill="#3A66E8"/>
</svg>
