<svg width="48" height="48" viewBox="0 0 48 48" fill="none" xmlns="http://www.w3.org/2000/svg">
<path opacity="0.5" d="M20.64 0.761108C21.6893 0.26005 22.8373 0 24 0C25.1627 0 26.3107 0.26005 27.36 0.761108C28.2825 1.20364 29.1278 1.92481 30.3102 2.93397L30.4952 3.08851C31.6191 4.0485 32.6938 4.50274 34.1947 4.62216L34.4335 4.64089C35.9835 4.76499 37.091 4.85162 38.0557 5.19347C39.1521 5.58082 40.148 6.20848 40.9704 7.0305C41.7928 7.85252 42.421 8.84808 42.8089 9.94427C43.1484 10.909 43.235 12.0165 43.3591 13.5665L43.3778 13.8053C43.4973 15.3062 43.9538 16.3809 44.9115 17.5048L45.066 17.6874C46.0752 18.8722 46.7987 19.7175 47.2389 20.64C47.7399 21.6893 48 22.8373 48 24C48 25.1627 47.7399 26.3107 47.2389 27.36C46.7964 28.2825 46.0752 29.1278 45.066 30.3102L44.9115 30.4952C43.9328 31.6425 43.4949 32.7219 43.3778 34.1947L43.3591 34.4335C43.235 35.9835 43.1484 37.091 42.8065 38.0557C42.4192 39.1521 41.7915 40.148 40.9695 40.9704C40.1475 41.7928 39.1519 42.421 38.0557 42.8089C37.091 43.1484 35.9835 43.235 34.4335 43.3591L34.1947 43.3778C32.6938 43.4973 31.6191 43.9538 30.4952 44.9115L30.3102 45.066C29.1278 46.0752 28.2825 46.7987 27.36 47.2389C26.3107 47.7399 25.1627 48 24 48C22.8373 48 21.6893 47.7399 20.64 47.2389C19.7175 46.7964 18.8722 46.0752 17.6898 45.066L17.5048 44.9115C16.4839 43.9913 15.1778 43.4498 13.8053 43.3778L13.5665 43.3591C12.0165 43.235 10.909 43.1484 9.94427 42.8065C8.84789 42.4192 7.85202 41.7915 7.02959 40.9695C6.20717 40.1475 5.57901 39.1519 5.19113 38.0557C4.85162 37.091 4.76499 35.9835 4.64089 34.4335L4.62216 34.1947C4.55019 32.8222 4.00874 31.516 3.08851 30.4952L2.93397 30.3102C1.92481 29.1278 1.2013 28.2825 0.761108 27.36C0.26005 26.3107 0 25.1627 0 24C0 22.8373 0.26005 21.6893 0.761108 20.64C1.20364 19.7175 1.92481 18.8722 2.93397 17.6898L3.08851 17.5048C4.00874 16.4839 4.55019 15.1778 4.62216 13.8053L4.64089 13.5665C4.76499 12.0165 4.85162 10.909 5.19347 9.94427C5.58082 8.84789 6.20848 7.85202 7.0305 7.02959C7.85252 6.20717 8.84808 5.57901 9.94427 5.19113C10.909 4.85162 12.0165 4.76499 13.5665 4.64089L13.8053 4.62216C15.1778 4.55019 16.4839 4.00874 17.5048 3.08851L17.6874 2.93397C18.8722 1.92481 19.7175 1.2013 20.64 0.761108ZM19.3873 16.9054C19.2266 16.7329 19.0327 16.5945 18.8173 16.4985C18.6019 16.4025 18.3693 16.3509 18.1335 16.3468C17.8978 16.3426 17.6635 16.386 17.4449 16.4743C17.2262 16.5626 17.0276 16.6941 16.8608 16.8608C16.6941 17.0276 16.5626 17.2262 16.4743 17.4449C16.386 17.6635 16.3426 17.8978 16.3468 18.1335C16.3509 18.3693 16.4025 18.6019 16.4985 18.8173C16.5945 19.0327 16.7329 19.2266 16.9054 19.3873L17.7319 20.2162C17.8927 20.3887 18.0866 20.5271 18.302 20.6231C18.5174 20.7191 18.7499 20.7707 18.9857 20.7749C19.2215 20.779 19.4557 20.7357 19.6744 20.6473C19.8931 20.559 20.0917 20.4275 20.2585 20.2608C20.4252 20.094 20.5567 19.8954 20.645 19.6767C20.7333 19.4581 20.7767 19.2239 20.7725 18.9881C20.7684 18.7523 20.7168 18.5197 20.6208 18.3043C20.5248 18.0889 20.3864 17.895 20.2139 17.7343L19.3873 16.9054ZM27.7931 27.7931C27.4643 28.1224 27.2796 28.5688 27.2796 29.0341C27.2796 29.4995 27.4643 29.9458 27.7931 30.2751L28.6197 31.104C28.9526 31.4142 29.3929 31.583 29.8478 31.575C30.3028 31.567 30.7368 31.3827 31.0586 31.0609C31.3803 30.7392 31.5646 30.3051 31.5727 29.8502C31.5807 29.3952 31.4118 28.9549 31.1016 28.622L30.2751 27.7931C29.9458 27.4643 29.4995 27.2796 29.0341 27.2796C28.5688 27.2796 28.1224 27.4643 27.7931 27.7931ZM31.0946 19.3873C31.2671 19.2266 31.4055 19.0327 31.5015 18.8173C31.5975 18.6019 31.6491 18.3693 31.6532 18.1335C31.6574 17.8978 31.614 17.6635 31.5257 17.4449C31.4374 17.2262 31.3059 17.0276 31.1392 16.8608C30.9724 16.6941 30.7738 16.5626 30.5551 16.4743C30.3365 16.386 30.1022 16.3426 29.8664 16.3468C29.6307 16.3509 29.3981 16.4025 29.1827 16.4985C28.9673 16.5945 28.7734 16.7329 28.6127 16.9054L16.9054 28.6127C16.7329 28.7734 16.5945 28.9673 16.4985 29.1827C16.4025 29.3981 16.3509 29.6307 16.3468 29.8664C16.3426 30.1022 16.386 30.3365 16.4743 30.5551C16.5626 30.7738 16.6941 30.9724 16.8608 31.1392C17.0276 31.3059 17.2262 31.4374 17.4449 31.5257C17.6635 31.614 17.8978 31.6574 18.1335 31.6532C18.3693 31.6491 18.6019 31.5975 18.8173 31.5015C19.0327 31.4055 19.2266 31.2671 19.3873 31.0946L31.0946 19.3873Z" fill="#3A66E8"/>
</svg>
