<svg width="74" height="74" viewBox="0 0 74 74" fill="none" xmlns="http://www.w3.org/2000/svg">
<path fill-rule="evenodd" clip-rule="evenodd" d="M36.9999 0C16.5655 0 0 16.5655 0 36.9999C0 57.4343 16.5655 74 36.9999 74C57.4343 74 74 57.4343 74 36.9999C74 16.5655 57.4345 0 36.9999 0ZM36.9999 66.5999C20.6786 66.5999 7.40005 53.3214 7.40005 36.9999C7.40005 20.6784 20.6784 7.40005 36.9999 7.40005C53.3214 7.40005 66.5999 20.6784 66.5999 36.9999C66.5999 53.3214 53.3214 66.5999 36.9999 66.5999ZM50.9332 23.7807L56.1653 29.0128L33.3 51.9738L19.584 38.2579L24.8159 33.0258L33.3 41.5098L50.9332 23.7807Z" fill="#00CE0E"/>
</svg>
