<svg width="212" height="265" viewBox="0 0 212 265" fill="none" xmlns="http://www.w3.org/2000/svg">
<rect y="105.972" width="149.867" height="149.867" transform="rotate(-45 0 105.972)" fill="#1C232F"/>
<path d="M70.4 240.32C68.352 240.32 66.624 239.883 65.216 239.008C63.808 238.112 62.7307 236.843 61.984 235.2C61.2587 233.536 60.896 231.563 60.896 229.28C60.896 227.04 61.312 225.099 62.144 223.456C62.976 221.792 64.1707 220.512 65.728 219.616C67.2853 218.699 69.152 218.24 71.328 218.24C73.4613 218.24 75.2533 218.581 76.704 219.264C78.1547 219.925 79.2533 220.864 80 222.08C80.7467 223.296 81.12 224.757 81.12 226.464V226.624H76.032V226.496C76.032 225.131 75.6693 224.192 74.944 223.68C74.2187 223.147 72.9813 222.88 71.232 222.88C70.016 222.88 69.024 223.061 68.256 223.424C67.488 223.787 66.9227 224.437 66.56 225.376C66.1973 226.293 66.016 227.595 66.016 229.28C66.016 230.987 66.208 232.309 66.592 233.248C66.976 234.187 67.584 234.837 68.416 235.2C69.248 235.563 70.336 235.744 71.68 235.744C72.8107 235.744 73.728 235.659 74.432 235.488C75.1573 235.317 75.6907 234.997 76.032 234.528C76.3947 234.059 76.576 233.387 76.576 232.512V231.072H81.184V231.552L77.088 236.736H76.544C76.3307 237.291 75.9787 237.845 75.488 238.4C75.0187 238.955 74.368 239.413 73.536 239.776C72.704 240.139 71.6587 240.32 70.4 240.32ZM81.184 240H76.736V234.208L76.576 233.824V229.184H81.184V240ZM81.184 232.608H70.72V228.608H81.184V232.608ZM86.6498 240H81.6578L89.5618 218.56H96.5378L104.442 240H99.2257L94.7138 227.616L93.1458 222.784H92.8258L91.1938 227.616L86.6498 240ZM100.25 235.232H86.0418V230.944H100.25V235.232ZM110.242 240H105.442V218.56H112.194L115.938 228.576L117.666 234.08H117.986L119.682 228.576L123.266 218.56H130.018V240H125.218V229.856L125.474 225.728H125.122L123.874 229.92L120.642 238.528H114.818L111.586 229.92L110.306 225.728H109.986L110.242 229.856V240ZM136.025 240H131.033L138.937 218.56H145.913L153.817 240H148.601L144.089 227.616L142.521 222.784H142.201L140.569 227.616L136.025 240ZM149.625 235.232H135.417V230.944H149.625V235.232Z" fill="white"/>
<path d="M59.676 261.14C58.7987 261.14 58.052 260.944 57.436 260.552C56.82 260.16 56.344 259.6 56.008 258.872C55.672 258.144 55.504 257.29 55.504 256.31C55.504 255.33 55.6813 254.481 56.036 253.762C56.3907 253.034 56.89 252.474 57.534 252.082C58.1873 251.681 58.9713 251.48 59.886 251.48C60.642 251.48 61.3047 251.62 61.874 251.9C62.4433 252.171 62.8913 252.563 63.218 253.076C63.5447 253.58 63.708 254.182 63.708 254.882V255.008H62.644V254.882C62.644 254.079 62.4153 253.473 61.958 253.062C61.5007 252.651 60.7773 252.446 59.788 252.446C59.0507 252.446 58.4393 252.591 57.954 252.88C57.478 253.16 57.128 253.585 56.904 254.154C56.68 254.723 56.568 255.442 56.568 256.31C56.568 257.169 56.68 257.883 56.904 258.452C57.1373 259.021 57.4967 259.451 57.982 259.74C58.4767 260.02 59.102 260.16 59.858 260.16C60.5113 260.16 61.048 260.076 61.468 259.908C61.8973 259.731 62.2193 259.46 62.434 259.096C62.6487 258.723 62.756 258.256 62.756 257.696V257.416H63.722V257.64L62.938 259.446H62.77C62.6207 259.801 62.3967 260.104 62.098 260.356C61.7993 260.608 61.4447 260.804 61.034 260.944C60.6233 261.075 60.1707 261.14 59.676 261.14ZM63.722 261H62.826V258.746L62.756 258.62V256.59H63.722V261ZM63.722 257.234H59.508V256.352H63.722V257.234ZM65.1741 261H64.1101L67.9181 251.62H69.3321L73.1261 261H72.0481L69.1641 254L68.6321 252.572H68.5621L68.0161 254L65.1741 261ZM71.4321 258.256H65.8041V257.332H71.4321V258.256ZM74.9095 261H73.9015V251.62H75.3155L77.9615 257.444L78.8015 259.474H78.8855L79.7395 257.444L82.3575 251.62H83.7715V261H82.7635V254.504L82.8055 253.132H82.7355L82.1475 254.504L79.4315 260.44H78.2275L75.5115 254.504L74.9515 253.132H74.8535L74.9095 254.504V261ZM86.558 261H85.55V251.62H86.558V261ZM91.864 261H85.886V260.076H91.864V261ZM91.654 256.744H85.886V255.82H91.654V256.744ZM91.864 252.53H85.886V251.62H91.864V252.53ZM94.1595 261H93.1515V251.62H96.9735C97.6175 251.62 98.1822 251.727 98.6675 251.942C99.1622 252.147 99.5449 252.455 99.8155 252.866C100.096 253.277 100.236 253.771 100.236 254.35C100.236 254.873 100.119 255.33 99.8855 255.722C99.6522 256.105 99.3255 256.403 98.9055 256.618C98.4949 256.823 98.0049 256.935 97.4355 256.954V257.024C97.7342 257.117 97.9862 257.262 98.1915 257.458C98.3969 257.654 98.5835 257.897 98.7515 258.186L100.348 261H99.1855L97.6735 258.368C97.5242 258.097 97.3562 257.873 97.1695 257.696C96.9922 257.519 96.7729 257.388 96.5115 257.304C96.2502 257.22 95.9189 257.178 95.5175 257.178H94.1595V261ZM94.1595 252.53V256.324H97.1275C97.8462 256.324 98.3735 256.175 98.7095 255.876C99.0549 255.568 99.2275 255.083 99.2275 254.42C99.2275 253.776 99.0549 253.3 98.7095 252.992C98.3735 252.684 97.8462 252.53 97.1275 252.53H94.1595ZM104.937 261.14C104.079 261.14 103.374 261.005 102.823 260.734C102.273 260.454 101.862 260.09 101.591 259.642C101.33 259.185 101.199 258.69 101.199 258.158V257.948H102.193V258.088C102.193 258.527 102.277 258.905 102.445 259.222C102.623 259.53 102.912 259.773 103.313 259.95C103.715 260.118 104.265 260.202 104.965 260.202C105.749 260.202 106.323 260.071 106.687 259.81C107.061 259.549 107.247 259.152 107.247 258.62C107.247 258.265 107.187 257.981 107.065 257.766C106.953 257.542 106.757 257.36 106.477 257.22C106.207 257.08 105.833 256.959 105.357 256.856L103.733 256.506C103.239 256.403 102.805 256.254 102.431 256.058C102.067 255.853 101.778 255.587 101.563 255.26C101.358 254.924 101.255 254.509 101.255 254.014C101.255 253.557 101.381 253.137 101.633 252.754C101.885 252.362 102.259 252.054 102.753 251.83C103.257 251.597 103.873 251.48 104.601 251.48C105.413 251.48 106.076 251.625 106.589 251.914C107.112 252.194 107.495 252.567 107.737 253.034C107.98 253.491 108.101 253.977 108.101 254.49V254.672H107.107V254.518C107.107 254.079 107.023 253.706 106.855 253.398C106.697 253.081 106.431 252.838 106.057 252.67C105.693 252.493 105.203 252.404 104.587 252.404C103.813 252.404 103.234 252.535 102.851 252.796C102.469 253.048 102.277 253.431 102.277 253.944C102.277 254.299 102.338 254.583 102.459 254.798C102.581 255.003 102.781 255.171 103.061 255.302C103.341 255.423 103.705 255.535 104.153 255.638L105.777 256.016C106.3 256.128 106.743 256.291 107.107 256.506C107.471 256.711 107.751 256.982 107.947 257.318C108.153 257.654 108.255 258.069 108.255 258.564C108.255 259.031 108.134 259.465 107.891 259.866C107.649 260.258 107.28 260.571 106.785 260.804C106.291 261.028 105.675 261.14 104.937 261.14ZM113.245 261H112.237V251.62H113.245V261ZM118.551 261H112.573V260.076H118.551V261ZM118.341 256.744H112.573V255.82H118.341V256.744ZM118.551 252.53H112.573V251.62H118.551V252.53ZM120.847 261H119.839V251.62H121.253L123.899 257.444L124.739 259.474H124.823L125.677 257.444L128.295 251.62H129.709V261H128.701V254.504L128.743 253.132H128.673L128.085 254.504L125.369 260.44H124.165L121.449 254.504L120.889 253.132H120.791L120.847 254.504V261ZM135.155 257.78H131.921V256.884H135.309C136.075 256.884 136.639 256.716 137.003 256.38C137.367 256.035 137.549 255.475 137.549 254.7C137.549 253.935 137.367 253.384 137.003 253.048C136.639 252.703 136.075 252.53 135.309 252.53H131.921V251.62H135.155C135.809 251.62 136.392 251.741 136.905 251.984C137.419 252.227 137.82 252.577 138.109 253.034C138.408 253.491 138.557 254.047 138.557 254.7C138.557 255.353 138.408 255.913 138.109 256.38C137.82 256.837 137.419 257.187 136.905 257.43C136.392 257.663 135.809 257.78 135.155 257.78ZM132.495 261H131.487V251.62H132.495V261ZM140.685 261H139.677V251.62H140.685V261ZM143.474 261H142.466V251.62H146.288C146.932 251.62 147.497 251.727 147.982 251.942C148.477 252.147 148.859 252.455 149.13 252.866C149.41 253.277 149.55 253.771 149.55 254.35C149.55 254.873 149.433 255.33 149.2 255.722C148.967 256.105 148.64 256.403 148.22 256.618C147.809 256.823 147.319 256.935 146.75 256.954V257.024C147.049 257.117 147.301 257.262 147.506 257.458C147.711 257.654 147.898 257.897 148.066 258.186L149.662 261H148.5L146.988 258.368C146.839 258.097 146.671 257.873 146.484 257.696C146.307 257.519 146.087 257.388 145.826 257.304C145.565 257.22 145.233 257.178 144.832 257.178H143.474V261ZM143.474 252.53V256.324H146.442C147.161 256.324 147.688 256.175 148.024 255.876C148.369 255.568 148.542 255.083 148.542 254.42C148.542 253.776 148.369 253.3 148.024 252.992C147.688 252.684 147.161 252.53 146.442 252.53H143.474ZM151.745 261H150.737V251.62H151.745V261ZM157.051 261H151.073V260.076H157.051V261ZM156.841 256.744H151.073V255.82H156.841V256.744ZM157.051 252.53H151.073V251.62H157.051V252.53Z" fill="white"/>
<g clip-path="url(#clip0_115_310)">
<path d="M197.002 105.501L106.501 15L16.0006 105.501L106.501 196.002L197.002 105.501Z" fill="#2F52BD"/>
<path d="M172.391 105.503L162.981 114.907L153.565 124.323L144.149 133.744L134.745 143.149L125.323 152.565L115.919 161.981L106.503 171.391L87.6768 152.565L78.2611 143.16L68.8509 133.744L59.4295 124.323L50.0193 114.919L40.6036 105.503L50.0193 96.087L59.4407 86.6768L68.8509 77.261L78.2611 67.8508L87.6768 58.4295L97.087 49.0193L106.503 39.6035L115.919 49.0193L125.323 58.4295L115.919 67.8508L106.503 58.4295L97.087 67.8508L87.6768 77.261L78.2611 86.6768L68.8509 96.0814L59.4295 105.503L68.8509 114.919L78.2611 124.323L87.6768 133.744L97.087 143.16L106.503 152.565L115.919 143.16L125.334 133.744L134.745 124.334L144.16 114.919L153.576 105.503L134.745 86.6768L125.334 96.087L106.503 114.919L106.592 95.9978L134.745 67.8508L144.16 77.261L153.565 86.6768L162.981 96.087L172.391 105.503Z" fill="white"/>
</g>
<defs>
<clipPath id="clip0_115_310">
<rect width="181" height="181" fill="white" transform="translate(16 15)"/>
</clipPath>
</defs>
</svg>
